<svg xmlns="http://www.w3.org/2000/svg" version="1.1" xmlns:xlink="http://www.w3.org/1999/xlink" xmlns:svgjs="http://svgjs.com/svgjs" width="1920" height="1080" preserveAspectRatio="none" viewBox="0 0 1920 1080"><g mask="url(&quot;#SvgjsMask1096&quot;)" fill="none"><rect width="1920" height="1080" x="0" y="0" fill="#0e2a47"></rect><path d="M0,635.871C126.606,657.334,268.111,654.538,373.436,581.078C477.871,508.239,491.124,364.008,550.946,251.609C615.593,130.145,777.116,25.999,739.277,-106.292C699.853,-244.124,497.015,-244.602,383.843,-332.602C299.721,-398.013,264.84,-523.739,162.824,-554.527C60.683,-585.353,-41.31,-519.235,-144.478,-492.046C-251.071,-463.955,-366.429,-460.87,-452.739,-392.301C-547.761,-316.811,-630.434,-213.246,-646.779,-92.993C-663.089,27.001,-603.31,143.452,-539.555,246.407C-481.244,340.571,-389.866,402.08,-300.061,466.904C-205.063,535.476,-115.513,616.289,0,635.871" fill="#0b2239"></path><path d="M1920 1837.351C2055.029 1803.0990000000002 2143.643 1685.316 2264.589 1616.191 2394.548 1541.915 2574.391 1541.492 2656.564 1416.377 2740.275 1288.919 2731.843 1115.841 2689.399 969.377 2649.549 831.862 2514.7889999999998 753.337 2430.818 637.374 2336.309 506.85699999999997 2319.6549999999997 290.86699999999996 2165.088 245.30600000000004 2010.556 199.755 1882.433 380.48699999999997 1729.318 430.596 1582.868 478.524 1388.893 415.899 1287.979 532.351 1187.065 648.803 1268.085 830.642 1250.0349999999999 983.674 1232.595 1131.539 1150.742 1271.054 1183.726 1416.245 1220.1390000000001 1576.533 1298.495 1743.4560000000001 1441.1779999999999 1825.062 1582.637 1905.9679999999998 1762.042 1877.42 1920 1837.351" fill="#113255"></path></g><defs><mask id="SvgjsMask1096"><rect width="1920" height="1080" fill="#ffffff"></rect></mask></defs></svg>